# xmcd
#
# Track frame offsets: 
#        150
#        11452
#        41908
#        67080
#        98811
#        113969
#        125813
#        145338
#        159854
#        178568
#        187502
#
# Disc length: 2715 seconds
#
# Revision: 3
# Processed by: cddbd v1.5.2PL0 Copyright (c) Steve Scherf et al.
# Submitted via: ExactAudioCopy v1.1
#
DISCID=910a990b
DTITLE=Cuby and Blizzards - Appleknockers Flophouse
DYEAR=1969
DGENRE=Blues
TTITLE0=Appleknockers Flophouse
TTITLE1=Unknown Boy
TTITLE2=Help Me
TTITLE3=Go Down Sunshine
TTITLE4=Disappointed Blues
TTITLE5=Midnight Mover
TTITLE6=Black Snake
TTITLE7=Checkin' Up On My Baby
TTITLE8=116 A Queensway
TTITLE9=Because Of Illness
TTITLE10=Wee Wee Baby
EXTD=2002 Bonustracks YEAR: 1969
EXTT0=
EXTT1=
EXTT2=
EXTT3=
EXTT4=
EXTT5=
EXTT6=
EXTT7=
EXTT8=
EXTT9=
EXTT10=
PLAYORDER=
